<?xml version="1.0" encoding="UTF-8"?>
<svg width="274px" height="156px" viewBox="0 0 274 156" version="1.1" xmlns="http://www.w3.org/2000/svg" xmlns:xlink="http://www.w3.org/1999/xlink">
    <!-- Generator: Sketch 43.1 (39012) - http://www.bohemiancoding.com/sketch -->
    <title>image2vector</title>
    <desc>Created with Sketch.</desc>
    <defs></defs>
    <g id="Page-1" stroke="none" stroke-width="1" fill="none" fill-rule="evenodd">
        <g id="image2vector">
            <path d="M143.119,1.611 C142.978,1.968 142.485,3.509 142.024,5.037 C141.563,6.565 140.235,10.815 139.074,14.481 C137.912,18.148 135.956,24.398 134.726,28.37 C133.497,32.343 131.854,37.593 131.076,40.037 C130.297,42.481 128.626,47.815 127.363,51.889 C126.099,55.963 124.514,61.046 123.84,63.185 C122.365,67.865 119.492,77.084 117.377,83.926 C116.527,86.676 115.02,91.509 114.027,94.667 C112.324,100.082 108.281,113.033 104.546,125.037 C103.627,127.991 102.061,132.991 101.067,136.148 C100.072,139.306 98.487,144.389 97.545,147.444 C96.603,150.5 95.687,153.458 95.509,154.019 L95.187,155.037 L112.9,155.037 L130.614,155.037 L131.005,154.019 C131.22,153.458 132.172,150.5 133.12,147.444 C137.382,133.701 138.25,130.912 139.395,127.259 C140.066,125.12 141.651,120.037 142.918,115.963 C144.185,111.889 145.852,106.556 146.623,104.111 C147.985,99.791 149.914,93.607 152.978,83.741 C153.801,81.093 155.287,76.343 156.281,73.185 C157.275,70.028 158.861,64.944 159.805,61.889 C160.749,58.833 162.076,54.583 162.754,52.444 C163.432,50.306 164.739,46.139 165.659,43.185 C166.579,40.231 168.695,33.481 170.36,28.185 C172.026,22.889 174.047,16.389 174.851,13.741 C175.656,11.093 176.619,8.009 176.993,6.889 C177.366,5.769 177.928,3.977 178.242,2.907 L178.812,0.963 L161.094,0.963 C144.564,0.963 143.358,1.006 143.119,1.611" id="path0" fill="#3E5B61"></path>
            <path d="M84.222,16.779 C82.593,17.693 79.843,19.199 78.111,20.125 C76.38,21.051 72.796,23.01 70.148,24.477 C65.298,27.165 62.263,28.811 56.815,31.704 C55.185,32.57 53.685,33.402 53.481,33.554 C53.278,33.705 50.028,35.498 46.259,37.538 C42.491,39.578 37.157,42.486 34.407,44.001 C31.657,45.516 28.074,47.479 26.444,48.364 C24.815,49.249 21.398,51.13 18.852,52.544 C16.306,53.958 12.972,55.783 11.444,56.6 C9.917,57.417 8,58.462 7.185,58.922 C6.37,59.382 4.495,60.389 3.019,61.158 L0.333,62.558 L0.333,77.632 L0.333,92.707 L8.944,97.447 C13.681,100.054 18.306,102.598 19.222,103.101 C22.093,104.675 46.598,117.996 51.259,120.516 C53.704,121.838 57.204,123.752 59.037,124.771 C60.87,125.789 64.454,127.741 67,129.108 C69.546,130.475 73.296,132.508 75.333,133.625 C82.656,137.639 86.917,139.852 87.325,139.852 C87.626,139.852 87.741,135.033 87.741,122.333 L87.741,104.814 L85.056,103.295 C81.622,101.353 80.331,100.638 77.37,99.037 C74.467,97.467 57.842,88.336 52.926,85.612 C50.991,84.539 47.235,82.474 44.58,81.023 C41.925,79.572 39.444,78.158 39.066,77.882 C38.28,77.307 38.114,77.412 49.407,71.343 C51.037,70.467 52.537,69.629 52.741,69.48 C52.944,69.331 54.611,68.411 56.444,67.436 C60.139,65.471 69.591,60.288 72.185,58.804 C73.102,58.28 74.519,57.5 75.333,57.071 C77.488,55.936 83.158,52.846 85.519,51.52 L87.556,50.376 L87.652,33.006 C87.705,23.453 87.621,15.52 87.467,15.377 C87.312,15.234 85.852,15.865 84.222,16.779 M186.259,32.933 L186.259,50.508 L194.87,55.242 C199.606,57.845 206.565,61.679 210.333,63.76 C216.987,67.435 219.811,68.986 224.037,71.286 C236.835,78.253 236.089,77.638 233.481,79.072 C232.463,79.632 230.63,80.643 229.407,81.318 C228.185,81.994 224.435,84.039 221.074,85.863 C217.713,87.687 213.38,90.058 211.444,91.131 C209.509,92.205 205.259,94.548 202,96.338 C198.741,98.128 194.619,100.401 192.84,101.389 C191.061,102.377 189.516,103.185 189.406,103.185 C189.296,103.185 188.543,103.624 187.733,104.16 L186.259,105.135 L186.259,122.679 C186.259,132.328 186.338,140.222 186.435,140.222 C186.651,140.222 190.559,138.144 194.778,135.786 C196.509,134.818 201.676,131.982 206.259,129.483 C210.843,126.985 216.176,124.066 218.111,122.996 C220.046,121.927 222.796,120.422 224.222,119.653 C225.648,118.883 228.101,117.53 229.672,116.645 C231.244,115.761 232.61,115.037 232.708,115.037 C232.806,115.037 233.854,114.474 235.036,113.786 C236.218,113.097 240.102,110.955 243.667,109.024 C247.231,107.094 250.898,105.098 251.815,104.589 C252.731,104.08 254.815,102.949 256.444,102.076 C258.074,101.203 259.574,100.37 259.778,100.224 C259.981,100.078 261.731,99.121 263.667,98.098 C265.602,97.074 268.602,95.423 270.333,94.429 L273.481,92.621 L273.578,77.565 L273.675,62.509 L270.615,60.859 C268.932,59.952 266.222,58.464 264.593,57.553 C262.963,56.642 259.796,54.928 257.556,53.745 C255.315,52.561 253.315,51.473 253.111,51.327 C252.764,51.078 251.149,50.184 246.259,47.534 C245.139,46.927 243.389,45.972 242.37,45.412 C241.352,44.852 239.435,43.808 238.111,43.093 C236.787,42.378 234.954,41.379 234.037,40.874 C233.12,40.369 230.704,39.078 228.667,38.006 C226.63,36.934 224.463,35.764 223.852,35.407 C221.763,34.187 219.035,32.688 212.556,29.202 C208.991,27.284 204.324,24.752 202.185,23.575 C193.84,18.984 187.889,15.842 187.093,15.605 L186.259,15.357 L186.259,32.933" id="path2" fill="#DD574E"></path>
        </g>
    </g>
</svg>