<?xml version="1.0" encoding="UTF-8"?>
<svg width="200px" height="114px" viewBox="0 0 200 114" version="1.1" xmlns="http://www.w3.org/2000/svg" xmlns:xlink="http://www.w3.org/1999/xlink">
    <defs></defs>
    <g id="Page-1" stroke="none" stroke-width="1" fill="none" fill-rule="evenodd">
        <g id="logo" fill-rule="nonzero" fill="#ECF0F1">
            <path d="M104.466423,1.17726923 C104.363504,1.43815385 104.00365,2.56426923 103.667153,3.68088462 C103.330657,4.7975 102.361314,7.90326923 101.513869,10.5822692 C100.665693,13.262 99.2379562,17.8293077 98.340146,20.7319231 C97.4430657,23.6352692 96.2437956,27.4718077 95.6759124,29.2578077 C95.1072993,31.0438077 93.8875912,34.9417308 92.9656934,37.9188846 C92.0430657,40.8960385 90.8861314,44.6105385 90.3941606,46.1736538 C89.3175182,49.5936538 87.220438,56.3306154 85.6766423,61.3305385 C85.0562044,63.3401538 83.9562044,66.8719615 83.2313869,69.1797308 C81.9883212,73.1368462 79.0372263,82.6010385 76.3109489,91.3731923 C75.640146,93.5318846 74.4970803,97.1857308 73.7715328,99.4927692 C73.0452555,101.800538 71.8883212,105.515038 71.2007299,107.747538 C70.5131387,109.980769 69.8445255,112.142385 69.7145985,112.552346 L69.479562,113.296269 L82.4087591,113.296269 L95.3386861,113.296269 L95.6240876,112.552346 C95.7810219,112.142385 96.4759124,109.980769 97.1678832,107.747538 C100.278832,97.7045769 100.912409,95.6664615 101.748175,92.9969615 C102.237956,91.4338462 103.394891,87.7193462 104.319708,84.7421923 C105.244526,81.7650385 106.461314,77.8678462 107.024088,76.0811154 C108.018248,72.9241923 109.426277,68.4051154 111.662774,61.1953462 C112.263504,59.2602692 113.348175,55.7891154 114.073723,53.4813462 C114.79927,51.1743077 115.956934,47.4590769 116.645985,45.2265769 C117.335036,42.9933462 118.30365,39.8875769 118.79854,38.3244615 C119.293431,36.7620769 120.247445,33.7169615 120.918978,31.5582692 C121.590511,29.3995769 123.135036,24.4668846 124.350365,20.5967308 C125.566423,16.7265769 127.041606,11.9765769 127.628467,10.0415 C128.216058,8.10642308 128.918978,5.85273077 129.191971,5.03426923 C129.464234,4.21580769 129.874453,2.90626923 130.10365,2.12434615 L130.519708,0.703730769 L117.586861,0.703730769 C105.521168,0.703730769 104.640876,0.735153846 104.466423,1.17726923" id="path0"></path>
            <path d="M61.4759124,12.2615769 C60.2868613,12.9295 58.279562,14.0300385 57.0153285,14.7067308 C55.7518248,15.3834231 53.1357664,16.815 51.2029197,17.8870385 C47.6627737,19.8513462 45.4474453,21.0541923 41.4708029,23.1683077 C40.2810219,23.8011538 39.1861314,24.4091538 39.0372263,24.5202308 C38.8890511,24.6305769 36.5167883,25.9408462 33.7656934,27.4316154 C31.0153285,28.9223846 27.1218978,31.0474615 25.1145985,32.1545769 C23.1072993,33.2616923 20.4919708,34.6961923 19.3021898,35.3429231 C18.1131387,35.9896538 15.6189781,37.3642308 13.7605839,38.3975385 C11.9021898,39.4308462 9.46861314,40.7645 8.35328467,41.3615385 C7.23868613,41.9585769 5.83941606,42.7222308 5.24452555,43.0583846 C4.64963504,43.3945385 3.2810219,44.1304231 2.20364964,44.6923846 L0.243065693,45.7154615 L0.243065693,56.7310769 L0.243065693,67.7474231 L6.52846715,71.2112692 C9.98613139,73.1163846 13.3620438,74.9754615 14.0306569,75.3430385 C16.1262774,76.4932692 34.0131387,86.2278462 37.4153285,88.0693846 C39.2,89.0354615 41.7547445,90.4341538 43.0927007,91.1788077 C44.4306569,91.9227308 47.0467153,93.3491923 48.9051095,94.3481538 C50.7635036,95.3471154 53.5007299,96.8327692 54.9875912,97.6490385 C60.3328467,100.582346 63.4430657,102.199538 63.7408759,102.199538 C63.9605839,102.199538 64.0445255,98.6779615 64.0445255,89.3971923 L64.0445255,76.5948462 L62.0846715,75.4848077 C59.5781022,74.0656538 58.6357664,73.5431538 56.4744526,72.3731923 C54.3554745,71.2258846 42.220438,64.5532308 38.6321168,62.5626154 C37.219708,61.7785 34.4781022,60.2694615 32.540146,59.2091154 C30.6021898,58.1487692 28.7912409,57.1154615 28.5153285,56.9137692 C27.9416058,56.4935769 27.820438,56.5703077 36.0635036,52.1352692 C37.2532847,51.4951154 38.3481752,50.8827308 38.4970803,50.7738462 C38.6452555,50.6649615 39.8620438,49.9926538 41.2,49.2801538 C43.8970803,47.8441923 50.7963504,44.0566154 52.689781,42.9721538 C53.3591241,42.5892308 54.3934307,42.0192308 54.9875912,41.7057308 C56.5605839,40.8763077 60.6992701,38.6182308 62.4226277,37.6492308 L63.9094891,36.8132308 L63.979562,24.1197692 C64.0182482,17.1387308 63.9569343,11.3415385 63.8445255,11.2370385 C63.7313869,11.1325385 62.6656934,11.5936538 61.4759124,12.2615769 M135.955474,24.0664231 L135.955474,36.9096923 L142.240876,40.3691538 C145.69781,42.2713462 150.777372,45.0731154 153.527737,46.5938462 C158.384672,49.2794231 160.445985,50.4128462 163.530657,52.0936154 C172.872263,57.1848846 172.327737,56.7354615 170.424088,57.7833846 C169.681022,58.1926154 168.343066,58.9314231 167.450365,59.4246923 C166.558394,59.9186923 163.821168,61.4131154 161.367883,62.7460385 C158.914599,64.0789615 155.751825,65.8116154 154.338686,66.5957308 C152.926277,67.3805769 149.824088,69.0927692 147.445255,70.4008462 C145.066423,71.7089231 142.057664,73.3699615 140.759124,74.0919615 C139.460584,74.8139615 138.332847,75.4044231 138.252555,75.4044231 C138.172263,75.4044231 137.622628,75.7252308 137.031387,76.1169231 L135.955474,76.8294231 L135.955474,89.6500385 C135.955474,96.7012308 136.013139,102.469923 136.083942,102.469923 C136.241606,102.469923 139.094161,100.951385 142.173723,99.2282308 C143.437226,98.5208462 147.208759,96.4483846 150.554015,94.6221923 C153.9,92.7967308 157.792701,90.6636154 159.205109,89.8816923 C160.617518,89.1005 162.624818,88.0006923 163.665693,87.4387308 C164.706569,86.8760385 166.49708,85.8873077 167.643796,85.2405769 C168.791241,84.5945769 169.788321,84.0655 169.859854,84.0655 C169.931387,84.0655 170.69635,83.6540769 171.559124,83.1513077 C172.421898,82.6478077 175.256934,81.0825 177.859124,79.6713846 C180.460584,78.261 183.137226,76.8023846 183.806569,76.4304231 C184.475182,76.0584615 185.99635,75.2319615 187.185401,74.594 C188.375182,73.9560385 189.470073,73.3473077 189.618978,73.2406154 C189.767153,73.1339231 191.044526,72.4345769 192.457664,71.687 C193.870073,70.9386923 196.059854,69.7321923 197.323358,69.0058077 L199.621168,67.6845769 L199.691971,56.6821154 L199.762774,45.6796538 L197.529197,44.4738846 C196.30073,43.8110769 194.322628,42.7236923 193.133577,42.0579615 C191.943796,41.3922308 189.632117,40.1396923 187.99708,39.2751923 C186.361314,38.4099615 184.90146,37.6148846 184.752555,37.5081923 C184.49927,37.3262308 183.320438,36.6729231 179.751095,34.7363846 C178.933577,34.2928077 177.656204,33.5949231 176.912409,33.1856923 C176.169343,32.7764615 174.770073,32.0135385 173.80365,31.4910385 C172.837226,30.9685385 171.49927,30.2385 170.829927,29.8694615 C170.160584,29.5004231 168.39708,28.557 166.910219,27.7736154 C165.423358,26.9902308 163.841606,26.1352308 163.39562,25.8743462 C161.870803,24.9828077 159.879562,23.8873846 155.150365,21.3399231 C152.548175,19.9383077 149.141606,18.088 147.580292,17.2278846 C141.489051,13.8729231 137.145255,11.5768462 136.564234,11.4036538 L135.955474,11.2224231 L135.955474,24.0664231" id="path2"></path>
        </g>
    </g>
</svg>
