<?xml version="1.0" encoding="UTF-8"?>
<svg width="40px" height="39px" viewBox="0 0 40 39" version="1.1" xmlns="http://www.w3.org/2000/svg" xmlns:xlink="http://www.w3.org/1999/xlink">
    <!-- Generator: Sketch 43.1 (39012) - http://www.bohemiancoding.com/sketch -->
    <title>github</title>
    <desc>Created with Sketch.</desc>
    <defs></defs>
    <g id="Page-1" stroke="none" stroke-width="1" fill="none" fill-rule="evenodd">
        <g id="github" fill-rule="nonzero" fill="#ECF0F1">
            <path d="M26.4764155,38.2475928 C26.284348,38.3168264 26.0911638,38.4005768 25.893513,38.4351935 C25.1364096,38.5703108 24.6517742,38.1794758 24.6473075,37.4056224 C24.6372574,35.968466 24.6372574,34.5335431 24.6607075,33.0963867 C24.6852743,31.4437128 24.6473075,29.8122555 23.3888186,28.4487995 C24.1369885,28.3147989 24.8025248,28.2209985 25.4535444,28.0713645 C29.76613,27.0808768 32.0061732,24.3606648 32.2920412,19.8459616 C32.4383252,17.5478515 32.0285067,15.4395755 30.5008999,13.6294508 C30.3903495,13.5021503 30.3847661,13.2129324 30.4372497,13.0275649 C30.8437182,11.5312249 30.7253509,10.0695018 30.2518822,8.60666208 C30.1346317,8.24151046 29.9403308,8.12872662 29.5796458,8.15217669 C28.3133403,8.222527 27.1531185,8.66696231 26.1302473,9.35036531 C25.1442263,10.0125516 24.2263223,10.1566022 23.0549338,9.88860108 C20.4754224,9.30681515 17.8791609,9.47654923 15.3052329,10.0728518 C15.0137817,10.1420855 14.6218299,10.0494018 14.3549454,9.89306777 C13.1467068,9.18509792 11.9384681,8.49722823 10.5448619,8.222527 C9.46727385,8.01259277 9.37347346,8.066193 9.08760554,9.10804762 C8.72803731,10.4212534 8.69230377,11.7355758 9.05968877,13.0565984 C9.11217231,13.2486658 9.05745538,13.5568672 8.92903815,13.6986845 C6.07370891,16.8845485 7.1077468,22.9045251 9.03177192,25.2104519 C10.5281118,27.0015932 12.5157873,27.8078301 14.7223304,28.2265819 C15.1075821,28.2980488 15.4906005,28.3527658 15.8758522,28.4197661 C15.5453173,29.2796032 15.2482827,30.0914235 14.9121645,30.8898436 C14.8462809,31.0439443 14.6374633,31.1734782 14.4666126,31.2382452 C12.3025031,32.0779822 10.4421282,31.4604628 9.20373938,29.4962375 C8.54155315,28.4487995 7.69176605,27.6660128 6.42546046,27.4393285 C6.38526028,27.4315117 6.34394344,27.410295 6.30709327,27.4158783 C5.96650844,27.5052121 5.62927362,27.5990125 5.28980545,27.6905795 C5.48075629,27.9563474 5.61587356,28.3136823 5.87159135,28.4733663 C6.94471275,29.1523026 7.64263249,30.1204569 8.10381785,31.2628119 C8.82853769,33.0539532 10.2355439,33.8523734 12.0635353,34.0087074 C12.9557559,34.0812911 13.8569099,34.0198741 14.8339975,34.0198741 C14.8339975,35.132079 14.8741977,36.4017346 14.8172475,37.6658068 C14.788214,38.3469765 14.1036943,38.6194444 13.2840574,38.3402765 C11.1098978,37.5965732 9.09430554,36.5301518 7.35341455,35.0315785 C1.06767017,29.616838 -1.35550718,22.7716412 0.733785367,14.7595225 C2.81637788,6.77308731 8.24451846,1.87424905 16.3604876,0.336592265 C27.5908538,-1.7873171 38.229384,6.39118562 39.3438222,17.7912859 C40.2237595,26.7782588 34.9340862,35.1879126 26.4764155,38.2475928 Z M15.8892522,28.3773325 C15.8825522,28.392966 15.8780855,28.4041327 15.8713855,28.4197661 C15.8914855,28.4231161 15.9115856,28.4264661 15.9328024,28.4298162 C15.9484358,28.4309328 15.9618358,28.4588496 15.8892522,28.3773325 Z M10.8083965,31.9294649 C10.9837139,32.037782 11.1512146,32.1751326 11.3410488,32.2343162 C11.4102825,32.2566497 11.5386997,32.099199 11.765384,31.9316982 C11.4504826,31.8122144 11.2651152,31.7072472 11.0696976,31.6804472 C10.9937639,31.6715138 10.8954968,31.8423645 10.8083965,31.9294649 Z M12.4085868,32.2041661 C12.4342703,32.3214166 12.6676546,32.4677006 12.8050052,32.4654672 C12.9378892,32.4632339 13.0674231,32.2867998 13.200307,32.1862994 C13.0797065,32.0757488 12.9591059,31.9685484 12.588371,31.6346636 C12.5079706,31.8669313 12.3750867,32.0545321 12.4085868,32.2041661 Z M14.3716955,31.731814 C14.2064281,31.7708975 14.0668442,31.9238815 13.9160935,32.0288487 C14.0043105,32.1405158 14.0925276,32.2443663 14.2343449,32.4196837 C14.4297624,32.2410162 14.5626463,32.1170657 14.6966469,31.9964652 C14.5849798,31.8993148 14.4543292,31.7117139 14.3716955,31.731814 Z M9.50524069,31.0696278 C9.59680777,31.2427118 9.73862508,31.3923458 9.93069262,31.6368969 C10.0591098,31.4269627 10.1986938,31.266162 10.174127,31.2337785 C10.0524098,31.0740945 9.88714238,30.9434438 9.72410831,30.82396 C9.71294162,30.8150266 9.48625731,31.0316609 9.50524069,31.0696278 Z" id="Shape"></path>
        </g>
    </g>
</svg>