<svg width="52px" height="50px" viewBox="0 0 52 50" version="1.1">
  <g id="Page-1" stroke="none" strokeWidth="1" fill="none" fillRule="evenodd" className="github-icon">
    <g id="github" fillRule="nonzero" fill="#FFFFFF">
      <path d="M34.4193402,49.7218706 C34.1696524,49.8118743 33.918513,49.9207498 33.6615669,49.9657516 C32.6773325,50.1414041 32.0473064,49.6333185 32.0414997,48.6273091 C32.0284346,46.7590058 32.0284346,44.893606 32.0589198,43.0253027 C32.0908566,40.8768266 32.0414997,38.7559322 30.4054642,36.9834394 C31.3780851,36.8092386 32.2432823,36.6872981 33.0896077,36.4927739 C38.695969,35.2051399 41.6080252,31.6688643 41.9796535,25.7997501 C42.1698227,22.8122069 41.6370587,20.0714482 39.6511699,17.7182861 C39.5074543,17.5527954 39.5001959,17.1768121 39.5684246,16.9358344 C40.0968336,14.9905924 39.9429562,13.0903524 39.3274468,11.1886607 C39.1750212,10.7139636 38.92243,10.5673446 38.4535396,10.5978297 C36.8073424,10.6892851 35.2990541,11.267051 33.9693215,12.1554749 C32.6874942,13.0163171 31.494219,13.2035829 29.9714139,12.8551814 C26.6180491,12.0988597 23.2429092,12.319514 19.8968028,13.0947074 C19.5179162,13.1847111 19.0083789,13.0642223 18.661429,12.8609881 C17.0907188,11.9406273 15.5200085,11.0463967 13.7083205,10.6892851 C12.307456,10.4163706 12.1855155,10.4860509 11.8138872,11.8404619 C11.3464485,13.5476294 11.2999949,15.2562486 11.7775954,16.9735779 C11.845824,17.2232656 11.774692,17.6239274 11.6077496,17.8082899 C7.89582158,21.9499131 9.24007084,29.7758826 11.7413035,32.7735875 C13.6865454,35.1020711 16.2705235,36.1501791 19.1390295,36.6945565 C19.6398567,36.7874635 20.1377806,36.8585955 20.6386078,36.9456959 C20.2089125,38.0634842 19.8227675,39.1188505 19.3858139,40.1567967 C19.3001652,40.3571276 19.0287023,40.5255217 18.8065964,40.6097187 C15.993254,41.7013769 13.5747666,40.8986017 11.9648612,38.3451087 C11.1040191,36.9834394 9.99929586,35.9658166 8.3530986,35.671127 C8.30083837,35.6609652 8.24712647,35.6333835 8.19922125,35.6406418 C7.75646097,35.7567757 7.3180557,35.8787162 6.87674709,35.9977534 C7.12498318,36.3432516 7.30063563,36.807787 7.63306876,37.0153762 C9.02812658,37.8979934 9.93542224,39.156594 10.5349632,40.6416555 C11.477099,42.9701391 13.3062071,44.0080854 15.6825959,44.2113196 C16.8424827,44.3056784 18.0139829,44.2258363 19.2841968,44.2258363 C19.2841968,45.6717027 19.336457,47.322255 19.2624217,48.9655489 C19.2246782,49.8510695 18.3348026,50.2052777 17.2692746,49.8423594 C14.4428671,48.8755452 11.8225972,47.4891974 9.55943892,45.5410521 C1.38797122,38.5018894 -1.76215933,29.6031335 0.953920977,19.1873793 C3.66129125,8.8050135 10.717874,2.43652376 21.2686339,0.437569945 C35.8681099,-2.32351223 49.6981992,8.30854131 51.1469689,23.1286717 C52.2908873,34.8117365 45.414312,45.7442864 34.4193402,49.7218706 Z M20.6560278,36.8905323 C20.6473178,36.9108558 20.6415111,36.9253725 20.6328011,36.9456959 C20.6589312,36.9500509 20.6850613,36.9544059 20.7126431,36.958761 C20.7329665,36.9602126 20.7503866,36.9965045 20.6560278,36.8905323 Z M14.0509154,41.5083044 C14.2788281,41.6491166 14.496579,41.8276724 14.7433634,41.9046111 C14.8333672,41.9336446 15.0003096,41.7289587 15.2949992,41.5112077 C14.8856274,41.3558787 14.6446497,41.2194214 14.3906069,41.1845813 C14.2918931,41.1729679 14.1641459,41.3950739 14.0509154,41.5083044 Z M16.1311629,41.8654159 C16.1645514,42.0178416 16.467951,42.2080108 16.6465068,42.2051074 C16.8192559,42.2022041 16.98765,41.9728397 17.1603991,41.8421892 C17.0036184,41.6984735 16.8468377,41.5591129 16.3648823,41.1250627 C16.2603618,41.4270107 16.0876127,41.6708917 16.1311629,41.8654159 Z M18.6832041,41.2513582 C18.4683565,41.3021668 18.2868974,41.501046 18.0909215,41.6375033 C18.2056037,41.7826706 18.3202859,41.9176762 18.5046484,42.1455888 C18.7586911,41.9133211 18.9314402,41.7521854 19.105641,41.5954047 C18.9604737,41.4691092 18.790628,41.2252281 18.6832041,41.2513582 Z M12.3568129,40.3905161 C12.4758501,40.6155254 12.6602126,40.8100496 12.9099004,41.127966 C13.0768428,40.8550515 13.2583019,40.6460106 13.2263651,40.603912 C13.0681327,40.3963228 12.8532851,40.226477 12.6413408,40.071148 C12.6268241,40.0595346 12.3321345,40.3411592 12.3568129,40.3905161 Z" id="Shape"></path>
    </g>
  </g>
</svg>
