<svg width="53px" height="50px" viewBox="0 0 53 50" version="1.1">
  <g id="Page-1" stroke="none" strokeWidth="1" fill="none" fillRule="evenodd" className="linkedin-icon">
    <g id="linkedIn" fillRule="nonzero" fill="#FFFFFF">
      <path d="M52.198665,30.5807039 L52.198665,49.8788835 L41.010801,49.8788835 L41.010801,31.8731796 C41.010801,27.35 39.3925971,24.2631068 35.3429612,24.2631068 C32.2515777,24.2631068 30.4118932,26.3434466 29.6025485,28.3558252 C29.3074029,29.0752427 29.231432,30.0765777 29.231432,31.0836165 L29.231432,49.8788835 L18.0398058,49.8788835 C18.0398058,49.8788835 18.190534,19.3831311 18.0398058,16.2235437 L29.2303398,16.2235437 L29.2303398,20.9940534 C29.2076456,21.029733 29.1781553,21.0682039 29.1567961,21.1027913 L29.2303398,21.1027913 L29.2303398,20.9940534 C30.7171117,18.7041262 33.3723301,15.4328883 39.315534,15.4328883 C46.6787621,15.432767 52.198665,20.2430825 52.198665,30.5807039 Z M6.33288835,0 C2.50424757,0 0,2.51128641 0,5.81371359 C0,9.04417476 2.43179612,11.6316748 6.18434466,11.6316748 L6.25910194,11.6316748 C10.1618932,11.6316748 12.5890777,9.04466019 12.5890777,5.81371359 C12.515534,2.51128641 10.1618932,0 6.33288835,0 Z M0.664684466,49.8788835 L11.8520631,49.8788835 L11.8520631,16.2235437 L0.664684466,16.2235437 L0.664684466,49.8788835 Z" id="LinkedIn"></path>
    </g>
  </g>
</svg>
