<?xml version="1.0" encoding="UTF-8"?>
<svg width="43px" height="44px" viewBox="0 0 43 44" version="1.1" xmlns="http://www.w3.org/2000/svg" xmlns:xlink="http://www.w3.org/1999/xlink">
    <!-- Generator: Sketch 43.1 (39012) - http://www.bohemiancoding.com/sketch -->
    <title>linkedin</title>
    <desc>Created with Sketch.</desc>
    <defs></defs>
    <g id="Page-1" stroke="none" stroke-width="1" fill="none" fill-rule="evenodd">
        <g id="linkedin" transform="translate(1.000000, 2.000000)" fill-rule="nonzero" fill="#ECF0F1">
            <path d="M39.3952189,23.0797765 L39.3952189,37.6444404 L30.9515479,37.6444404 L30.9515479,24.0552299 C30.9515479,20.6415094 29.730262,18.3117787 26.673933,18.3117787 C24.3408134,18.3117787 22.9523722,19.8818465 22.341546,21.4006228 C22.1187946,21.9435794 22.0614581,22.6993039 22.0614581,23.4593332 L22.0614581,37.6444404 L13.6149478,37.6444404 C13.6149478,37.6444404 13.7287049,14.6287782 13.6149478,12.2441839 L22.0606338,12.2441839 L22.0606338,15.8445686 C22.0435061,15.8714966 22.0212493,15.9005312 22.0051291,15.9266349 L22.0606338,15.9266349 L22.0606338,15.8445686 C23.1827258,14.1163217 25.1866642,11.6474629 29.6721011,11.6474629 C35.2292544,11.6473713 39.3952189,15.2777981 39.3952189,23.0797765 Z M4.77953838,0 C1.88999817,0 0,1.8953105 0,4.38770837 C0,6.82579227 1.83531783,8.77862249 4.66742993,8.77862249 L4.72385052,8.77862249 C7.66935336,8.77862249 9.50119072,6.82615863 9.50119072,4.38770837 C9.44568604,1.8953105 7.66935336,0 4.77953838,0 Z M0.501648654,37.6444404 L8.94495328,37.6444404 L8.94495328,12.2441839 L0.501648654,12.2441839 L0.501648654,37.6444404 Z" id="LinkedIn"></path>
        </g>
    </g>
</svg>