<?xml version="1.0" encoding="UTF-8"?>
<svg width="43px" height="35px" viewBox="0 0 43 35" version="1.1" xmlns="http://www.w3.org/2000/svg" xmlns:xlink="http://www.w3.org/1999/xlink">
    <!-- Generator: Sketch 43.1 (39012) - http://www.bohemiancoding.com/sketch -->
    <title>twitter</title>
    <desc>Created with Sketch.</desc>
    <defs></defs>
    <g id="Page-1" stroke="none" stroke-width="1" fill="none" fill-rule="evenodd">
        <g id="twitter" fill-rule="nonzero" fill="#ECF0F1">
            <path d="M42.6917715,4.10288437 C41.1205001,4.79912677 39.4345485,5.27131039 37.6631449,5.48211537 C39.4718684,4.39900189 40.8564009,2.68103197 41.5126029,0.640227702 C39.8159786,1.6432604 37.9432184,2.37159092 35.947756,2.76641427 C34.3498375,1.06176791 32.0769525,0 29.5559425,0 C24.7194261,0 20.7979094,3.92151675 20.7979094,8.75538237 C20.7979094,9.44095197 20.8752696,10.1105473 21.0246887,10.7508447 C13.7472431,10.3853192 7.29411337,6.89866624 2.97512253,1.60056925 C2.22014493,2.8917672 1.79065245,4.39628138 1.79065245,6.00229166 C1.79065245,9.04082712 3.33792753,11.7218591 5.68552211,13.29041 C4.25027642,13.2424173 2.90041302,12.847594 1.71866346,12.1913222 L1.71866346,12.3007008 C1.71866346,16.5423314 4.7385041,20.0823484 8.7426826,20.8880391 C8.00905058,21.0854508 7.23544792,21.1948294 6.43512844,21.1948294 C5.86961025,21.1948294 5.32271711,21.1388148 4.78649676,21.0320869 C5.90155885,24.5134383 9.13485522,27.0450513 12.9656882,27.1144593 C9.96984386,29.4620539 6.19237486,30.8572592 2.08949048,30.8572592 C1.3825753,30.8572592 0.686263155,30.814568 0.000693548387,30.7372078 C3.87686839,33.2261994 8.47865324,34.6774194 13.4245483,34.6774194 C29.5347364,34.6774194 38.340832,21.3335756 38.340832,9.76113559 L38.3114644,8.62737872 C40.0320851,7.4001477 41.5206249,5.85824391 42.6917715,4.10288437 Z" id="Shape"></path>
        </g>
    </g>
</svg>