<svg width="62px" height="50px" viewBox="0 0 62 50" version="1.1">
  <g id="Page-1" stroke="none" strokeWidth="1" fill="none" fillRule="evenodd">
    <g id="twitterIcon" fillRule="nonzero" fill="#FFFFFF" className="twitter-icon">
      <path d="M61.5555775,5.91578676 C59.2900234,6.91967115 56.8591165,7.60049405 54.3049996,7.90444541 C56.9129265,6.34274691 58.9092292,3.86567401 59.8553809,0.923119012 C57.4090854,2.36935221 54.7088265,3.41950318 51.8316482,3.98878337 C49.5276727,1.53092117 46.2504896,0 42.615545,0 C35.6419632,0 29.9876833,5.65427996 29.9876833,12.6240397 C29.9876833,13.6125354 30.099226,14.5779984 30.3146674,15.501218 C19.8216063,14.9741812 10.5170937,9.94691412 4.28971156,2.30779753 C3.2011392,4.1695248 2.58187098,6.33882431 2.58187098,8.65446704 C2.58187098,13.0356112 4.81282574,16.9012852 8.19772956,19.1629167 C6.12830553,19.093718 4.18199087,18.5244378 2.47807289,17.5781855 L2.47807289,17.7358942 C2.47807289,23.8517337 6.83226173,28.9559442 12.6057284,30.1176378 C11.5479334,30.4022779 10.4325063,30.5599866 9.27855729,30.5599866 C8.46315896,30.5599866 7.67461537,30.4792213 6.90146045,30.3253346 C8.50922439,35.3449576 13.1711866,38.9951903 18.6947132,39.0952669 C14.3751237,42.4801707 8.92854049,44.4918621 3.01275372,44.4918621 C1.99348067,44.4918621 0.989495712,44.4303074 0.001,44.3187647 C5.58990326,47.9075433 12.2250349,50 19.3563254,50 C42.5849688,50 55.2821299,30.7600393 55.2821299,14.0741955 L55.2397859,12.4394763 C57.7206808,10.6699804 59.8669476,8.44677029 61.5555775,5.91578676 Z" id="Shape"></path>
    </g>
  </g>
</svg>
